<svg width="75" height="84" viewBox="0 0 75 84" fill="none" xmlns="http://www.w3.org/2000/svg">
<path d="M35.8461 12.261C36.2633 10.9768 38.0803 10.9768 38.4975 12.261L44.4593 30.6096C44.646 31.1839 45.1812 31.5727 45.7851 31.5727H65.0779C66.4281 31.5727 66.9897 33.3007 65.8972 34.0945L50.289 45.4344C49.8004 45.7894 49.596 46.4186 49.7826 46.9929L55.7444 65.3415C56.1617 66.6257 54.6918 67.6939 53.5993 66.8999L37.9911 55.5599C37.5026 55.205 36.841 55.205 36.3525 55.5599L20.7442 66.8999C19.6518 67.6939 18.1819 66.6257 18.5992 65.3415L24.561 46.9929C24.7476 46.4186 24.5431 45.7894 24.0546 45.4344L8.44642 34.0945C7.35396 33.3007 7.91539 31.5727 9.2658 31.5727H28.5586C29.1624 31.5727 29.6976 31.1839 29.8843 30.6096L35.8461 12.261Z" fill="url(#paint0_linear_73_108934)"/>
<path d="M41.0836 33.8682H33.2605C29.7779 33.8682 26.9546 36.6914 26.9546 40.1741V53.7419C26.9546 57.2246 29.7779 60.0479 33.2605 60.0479H41.0836C44.5663 60.0479 47.3895 57.2246 47.3895 53.7419V40.1741C47.3895 36.6914 44.5663 33.8682 41.0836 33.8682Z" fill="#0D0D0D"/>
<path fill-rule="evenodd" clip-rule="evenodd" d="M40.3454 28.5685C41.1596 28.4693 42.2418 28.453 43.7514 28.4505L42.9047 25.822C41.7791 25.8307 40.819 25.8596 40.0268 25.9562C38.9095 26.0924 37.8458 26.39 37.0709 27.2136C36.3104 28.0218 36.0456 29.1093 35.9237 30.2569C35.8013 31.4091 35.8013 32.9075 35.8013 34.7589L35.8013 34.8073H38.433C38.433 32.8737 38.4354 31.5253 38.5407 30.535C38.6474 29.5301 38.8387 29.1752 38.9875 29.017C39.1219 28.8742 39.4209 28.6812 40.3454 28.5685Z" fill="#0D0D0D"/>
<path d="M37.4362 37.3145H36.8255C36.4955 37.3145 36.228 37.5819 36.228 37.9119V44.4314C36.228 44.7614 36.4955 45.0288 36.8255 45.0288H37.4362C37.7661 45.0288 38.0336 44.7614 38.0336 44.4314V37.9119C38.0336 37.5819 37.7661 37.3145 37.4362 37.3145Z" fill="url(#paint1_linear_73_108934)"/>
<path d="M28.5957 45.8496H45.6667V53.2285C45.6667 56.088 43.3485 58.406 40.4889 58.406H33.7735C30.9139 58.406 28.5957 56.088 28.5957 53.2285V45.8496Z" fill="url(#paint2_linear_73_108934)"/>
<path d="M60.47 18.2744H55.4829C55.4095 18.2744 55.3501 18.3339 55.3501 18.4072V23.5581C55.3501 23.6315 55.4095 23.6909 55.4829 23.6909H60.47C60.5433 23.6909 60.6027 23.6315 60.6027 23.5581V18.4072C60.6027 18.3339 60.5433 18.2744 60.47 18.2744Z" fill="#F4A801"/>
<path d="M52.9197 22.2139H49.7382C49.6649 22.2139 49.6055 22.2733 49.6055 22.3466V26.3486C49.6055 26.422 49.6649 26.4814 49.7382 26.4814H52.9197C52.9931 26.4814 53.0525 26.422 53.0525 26.3486V22.3466C53.0525 22.2733 52.9931 22.2139 52.9197 22.2139Z" fill="#F4A801"/>
<path d="M57.7617 27.959H55.1547C55.0814 27.959 55.022 28.0184 55.022 28.0917V31.7655C55.022 31.8388 55.0814 31.8983 55.1547 31.8983H57.7617C57.8351 31.8983 57.8945 31.8388 57.8945 31.7655V28.0917C57.8945 28.0184 57.8351 27.959 57.7617 27.959Z" fill="#F4A801"/>
<defs>
<linearGradient id="paint0_linear_73_108934" x1="47.4714" y1="32.6782" x2="22.3585" y2="63.9871" gradientUnits="userSpaceOnUse">
<stop stop-color="#F4A801"/>
<stop offset="1" stop-color="#E63C0C"/>
</linearGradient>
<linearGradient id="paint1_linear_73_108934" x1="37.1308" y1="37.3145" x2="37.1308" y2="45.0288" gradientUnits="userSpaceOnUse">
<stop stop-color="#878CFF"/>
<stop offset="1" stop-color="#4D51DB"/>
</linearGradient>
<linearGradient id="paint2_linear_73_108934" x1="37.1312" y1="45.8496" x2="37.1312" y2="58.406" gradientUnits="userSpaceOnUse">
<stop stop-color="#878CFF"/>
<stop offset="1" stop-color="#4D51DB"/>
</linearGradient>
</defs>
</svg>
