<svg width="524" height="214" viewBox="0 0 524 214" fill="none" xmlns="http://www.w3.org/2000/svg">
<path d="M106.936 3.68914C108.53 -1.22984 115.47 -1.22959 117.064 3.68914L139.839 73.9662C140.552 76.1658 142.597 77.6552 144.904 77.6552H218.604C223.762 77.6552 225.907 84.2735 221.733 87.3136L162.109 130.747C160.243 132.107 159.462 134.516 160.174 136.716L182.949 206.993C184.543 211.912 178.928 216.003 174.755 212.962L115.13 169.529C113.264 168.169 110.737 168.169 108.87 169.529L49.2455 212.962C45.0722 216.003 39.4571 211.912 41.0513 206.993L63.8258 136.716C64.5386 134.516 63.7576 132.107 61.8913 130.747L2.26679 87.3136C-1.90649 84.2735 0.238217 77.6552 5.39687 77.6552H79.0969C81.4036 77.6552 83.4482 76.1658 84.1612 73.9662L106.936 3.68914Z" fill="url(#paint0_linear_73_21)"/>
<path d="M126.942 86.4468H97.0578C83.7536 86.4468 72.9685 97.2602 72.9685 110.599V162.565C72.9685 175.905 83.7536 186.718 97.0578 186.718H126.942C140.247 186.718 151.032 175.905 151.032 162.565V110.599C151.032 97.2602 140.247 86.4468 126.942 86.4468Z" fill="black"/>
<path d="M111.791 90.0438C111.791 60.8793 111.833 60.6553 139.536 60.6553H151.136" stroke="black" stroke-width="40"/>
<path d="M113.01 99.6484H110.677C109.417 99.6484 108.395 100.673 108.395 101.937V126.907C108.395 128.171 109.417 129.195 110.677 129.195H113.01C114.27 129.195 115.292 128.171 115.292 126.907V101.937C115.292 100.673 114.27 99.6484 113.01 99.6484Z" fill="url(#paint1_linear_73_21)"/>
<path d="M79.2385 132.339H144.448V160.601C144.448 171.553 135.593 180.431 124.669 180.431H99.0171C88.0937 180.431 79.2385 171.553 79.2385 160.601V132.339Z" fill="url(#paint2_linear_73_21)"/>
<path d="M200.999 26.7241H181.949C181.669 26.7241 181.442 26.9518 181.442 27.2326V46.9614C181.442 47.2422 181.669 47.4699 181.949 47.4699H200.999C201.279 47.4699 201.506 47.2422 201.506 46.9614V27.2326C201.506 26.9518 201.279 26.7241 200.999 26.7241Z" fill="#F4A801"/>
<path d="M172.156 41.8125H160.003C159.723 41.8125 159.496 42.0402 159.496 42.321V57.6492C159.496 57.93 159.723 58.1576 160.003 58.1576H172.156C172.436 58.1576 172.663 57.93 172.663 57.6492V42.321C172.663 42.0402 172.436 41.8125 172.156 41.8125Z" fill="#F4A801"/>
<path d="M190.653 63.8149H180.695C180.415 63.8149 180.188 64.0426 180.188 64.3234V78.3943C180.188 78.6751 180.415 78.9028 180.695 78.9028H190.653C190.933 78.9028 191.16 78.6751 191.16 78.3943V64.3234C191.16 64.0426 190.933 63.8149 190.653 63.8149Z" fill="#F4A801"/>
<path d="M273.458 137.081C269.141 137.081 265.354 136.127 262.095 134.22C258.879 132.314 256.382 129.644 254.605 126.212C252.827 122.737 251.939 118.669 251.939 114.008C251.939 110.492 252.447 107.335 253.462 104.538C254.478 101.699 255.917 99.2838 257.779 97.2924C259.683 95.2585 261.947 93.7119 264.571 92.6525C267.237 91.5509 270.199 91 273.458 91C277.817 91 281.604 91.9534 284.82 93.8602C288.037 95.7245 290.533 98.3729 292.311 101.805C294.088 105.237 294.977 109.284 294.977 113.945C294.977 117.462 294.469 120.64 293.453 123.479C292.438 126.318 290.978 128.754 289.073 130.788C287.211 132.822 284.947 134.39 282.281 135.492C279.658 136.551 276.716 137.081 273.458 137.081ZM273.458 130.089C276.208 130.089 278.536 129.453 280.44 128.182C282.387 126.911 283.868 125.068 284.884 122.653C285.942 120.237 286.471 117.356 286.471 114.008C286.471 108.924 285.328 104.983 283.043 102.186C280.8 99.3898 277.605 97.9915 273.458 97.9915C270.749 97.9915 268.422 98.6271 266.475 99.8983C264.528 101.127 263.026 102.949 261.968 105.364C260.953 107.737 260.445 110.619 260.445 114.008C260.445 119.051 261.587 122.991 263.873 125.831C266.158 128.67 269.353 130.089 273.458 130.089ZM315.365 136.953C314.053 136.953 313.038 136.593 312.318 135.873C311.641 135.11 311.303 134.072 311.303 132.758V98.4364H298.924C297.824 98.4364 296.957 98.1397 296.322 97.5466C295.729 96.911 295.433 96.0636 295.433 95.0042C295.433 93.9026 295.729 93.0764 296.322 92.5254C296.957 91.9323 297.824 91.6356 298.924 91.6356H331.806C332.906 91.6356 333.753 91.9323 334.345 92.5254C334.98 93.0764 335.297 93.9026 335.297 95.0042C335.297 96.0636 334.98 96.911 334.345 97.5466C333.753 98.1397 332.906 98.4364 331.806 98.4364H319.428V132.758C319.428 134.072 319.089 135.11 318.412 135.873C317.735 136.593 316.719 136.953 315.365 136.953ZM355.597 136.953C354.285 136.953 353.269 136.593 352.55 135.873C351.873 135.11 351.534 134.072 351.534 132.758V98.4364H339.156C338.056 98.4364 337.188 98.1397 336.553 97.5466C335.961 96.911 335.665 96.0636 335.665 95.0042C335.665 93.9026 335.961 93.0764 336.553 92.5254C337.188 91.9323 338.056 91.6356 339.156 91.6356H372.037C373.138 91.6356 373.984 91.9323 374.577 92.5254C375.211 93.0764 375.529 93.9026 375.529 95.0042C375.529 96.0636 375.211 96.911 374.577 97.5466C373.984 98.1397 373.138 98.4364 372.037 98.4364H359.659V132.758C359.659 134.072 359.321 135.11 358.644 135.873C357.966 136.593 356.951 136.953 355.597 136.953ZM375.654 136.953C374.638 136.953 373.813 136.72 373.178 136.254C372.586 135.788 372.226 135.174 372.099 134.411C371.972 133.606 372.12 132.716 372.543 131.742L389.301 94.5593C389.852 93.3306 390.508 92.4619 391.269 91.9534C392.073 91.4025 392.983 91.1271 393.999 91.1271C394.972 91.1271 395.84 91.4025 396.601 91.9534C397.406 92.4619 398.083 93.3306 398.633 94.5593L415.454 131.742C415.92 132.716 416.089 133.606 415.962 134.411C415.835 135.216 415.476 135.852 414.883 136.318C414.291 136.742 413.508 136.953 412.534 136.953C411.35 136.953 410.419 136.678 409.741 136.127C409.107 135.534 408.535 134.644 408.027 133.458L403.901 123.86L407.329 126.085H380.541L383.969 123.86L379.907 133.458C379.357 134.686 378.785 135.576 378.193 136.127C377.6 136.678 376.754 136.953 375.654 136.953ZM393.872 100.47L384.985 121.636L383.335 119.602H404.536L402.949 121.636L393.999 100.47H393.872ZM436.438 136.953C435.296 136.953 434.344 136.699 433.582 136.191C432.863 135.64 432.27 134.835 431.805 133.775L415.237 96.5297C414.771 95.4703 414.644 94.5382 414.856 93.7331C415.067 92.9279 415.512 92.2923 416.189 91.8263C416.866 91.3603 417.67 91.1271 418.601 91.1271C419.828 91.1271 420.738 91.4025 421.331 91.9534C421.965 92.4619 422.494 93.2457 422.918 94.3051L437.962 129.199H435.232L450.213 94.2415C450.679 93.2246 451.229 92.4619 451.864 91.9534C452.498 91.4025 453.387 91.1271 454.53 91.1271C455.461 91.1271 456.222 91.3603 456.815 91.8263C457.45 92.2923 457.852 92.9279 458.021 93.7331C458.19 94.5382 458.042 95.4703 457.577 96.5297L441.009 133.775C440.543 134.835 439.951 135.64 439.231 136.191C438.554 136.699 437.623 136.953 436.438 136.953ZM467.98 136.953C466.667 136.953 465.651 136.593 464.933 135.873C464.255 135.11 463.917 134.072 463.917 132.758V95.322C463.917 93.9662 464.255 92.9279 464.933 92.2076C465.651 91.4874 466.667 91.1271 467.98 91.1271C469.292 91.1271 470.285 91.4874 470.963 92.2076C471.682 92.9279 472.042 93.9662 472.042 95.322V132.758C472.042 134.072 471.704 135.11 471.027 135.873C470.349 136.593 469.333 136.953 467.98 136.953ZM501.892 137.081C497.576 137.081 493.787 136.127 490.529 134.22C487.312 132.314 484.816 129.644 483.039 126.212C481.262 122.737 480.373 118.669 480.373 114.008C480.373 110.492 480.881 107.335 481.896 104.538C482.912 101.699 484.349 99.2838 486.213 97.2924C488.117 95.2585 490.38 93.7119 493.005 92.6525C495.671 91.5509 498.632 91 501.892 91C506.249 91 510.038 91.9534 513.255 93.8602C516.469 95.7245 518.968 98.3729 520.745 101.805C522.522 105.237 523.411 109.284 523.411 113.945C523.411 117.462 522.903 120.64 521.888 123.479C520.872 126.318 519.412 128.754 517.508 130.788C515.644 132.822 513.382 134.39 510.715 135.492C508.09 136.551 505.15 137.081 501.892 137.081ZM501.892 130.089C504.642 130.089 506.97 129.453 508.875 128.182C510.82 126.911 512.302 125.068 513.318 122.653C514.374 120.237 514.905 117.356 514.905 114.008C514.905 108.924 513.762 104.983 511.477 102.186C509.233 99.3898 506.038 97.9915 501.892 97.9915C499.183 97.9915 496.854 98.6271 494.909 99.8983C492.962 101.127 491.459 102.949 490.403 105.364C489.387 107.737 488.879 110.619 488.879 114.008C488.879 119.051 490.022 122.991 492.307 125.831C494.592 128.67 497.786 130.089 501.892 130.089Z" fill="url(#paint3_linear_73_21)"/>
<defs>
<linearGradient id="paint0_linear_73_21" x1="151.345" y1="81.8892" x2="55.1057" y2="201.559" gradientUnits="userSpaceOnUse">
<stop stop-color="#F4A801"/>
<stop offset="1" stop-color="#E63C0C"/>
</linearGradient>
<linearGradient id="paint1_linear_73_21" x1="111.843" y1="99.6484" x2="111.843" y2="129.195" gradientUnits="userSpaceOnUse">
<stop stop-color="#878CFF"/>
<stop offset="1" stop-color="#4D51DB"/>
</linearGradient>
<linearGradient id="paint2_linear_73_21" x1="111.843" y1="132.339" x2="111.843" y2="180.431" gradientUnits="userSpaceOnUse">
<stop stop-color="#878CFF"/>
<stop offset="1" stop-color="#4D51DB"/>
</linearGradient>
<linearGradient id="paint3_linear_73_21" x1="248.511" y1="158.818" x2="488.602" y2="112.208" gradientUnits="userSpaceOnUse">
<stop stop-color="#D30810"/>
<stop offset="1" stop-color="#F4A801"/>
</linearGradient>
</defs>
</svg>
